<svg xmlns="http://www.w3.org/2000/svg" viewBox="0 0 36.55 34.2"><defs><style>.cls-1{fill:#4d4d4d;}</style></defs><g id="圖層_2" data-name="圖層 2"><g id="圖層_2-2" data-name="圖層 2"><path class="cls-1" d="M1.4,5.09,4.12,6.58l4,16L6.24,24.12a1.87,1.87,0,0,0-.71,1.47V28.4a1.87,1.87,0,0,0,1.84,1.86l1.87,0a2.82,2.82,0,0,0-.15.92,3,3,0,0,0,6,0,2.94,2.94,0,0,0-.12-.84l12.4.18a2.84,2.84,0,0,0-.08.66,3,3,0,0,0,6,0,2.78,2.78,0,0,0-.06-.58H34a1.87,1.87,0,0,0,1.86-1.84,1.88,1.88,0,0,0-1.84-1.9L9.27,26.56v-.07l1.31-1,.36,0,20.27.19a2.69,2.69,0,0,0,2.64-2.1l2.63-11.44a2.72,2.72,0,0,0-2-3.25h0a2.73,2.73,0,0,0-3.25,2l-2.13,9.31-16-.15-4-16A2.71,2.71,0,0,0,7.77,2.4L4,.33A2.72,2.72,0,0,0,1.4,5.09Zm.24-3A1.22,1.22,0,0,1,3.3,1.64L7.05,3.7a1.21,1.21,0,0,1,.6.78L11.78,21a.74.74,0,0,0,.72.56l17.14.16a.77.77,0,0,0,.73-.58l2.27-9.89A1.23,1.23,0,0,1,35,11.8L32.41,23.23a1.23,1.23,0,0,1-1.21,1L11,24a1.06,1.06,0,0,1-.34-.06.74.74,0,0,0-.67.13L8.06,25.55a.76.76,0,0,0-.28.58v1.16a.74.74,0,0,0,.73.74L34,28.39a.36.36,0,0,1,.27.12.38.38,0,0,1,.11.27.39.39,0,0,1-.39.37l-1.94,0a.75.75,0,0,0-.67.4.73.73,0,0,0,.07.78,1.51,1.51,0,1,1-2.38,0,.74.74,0,0,0-.57-1.2l-14.85-.21h0a.76.76,0,0,0-.69.45.77.77,0,0,0,.16.82,1.51,1.51,0,1,1-2.56,1.07,1.49,1.49,0,0,1,.48-1.1.73.73,0,0,0,.19-.81.76.76,0,0,0-.68-.48l-3.18,0A.38.38,0,0,1,7,28.4V25.59a.41.41,0,0,1,.14-.31L9.43,23.5a.76.76,0,0,0,.26-.77L5.48,5.9a.74.74,0,0,0-.36-.47l-3-1.64A1.23,1.23,0,0,1,1.64,2.12Z"/><path class="cls-1" d="M22.75,3.19H19.22a1.92,1.92,0,0,0-1.91,1.92V9.66H16.22a1.52,1.52,0,0,0-1.45.75A1.55,1.55,0,0,0,15,12l4.48,6a1.77,1.77,0,0,0,2.95,0L27,12a1.55,1.55,0,0,0,.25-1.62,1.52,1.52,0,0,0-1.44-.75H24.67V5.11A1.92,1.92,0,0,0,22.75,3.19Zm3,8-4.48,6a.32.32,0,0,1-.57,0l-4.48-6h1.83a.74.74,0,0,0,.74-.74V5.11a.44.44,0,0,1,.43-.44h3.53a.44.44,0,0,1,.43.44V10.4a.75.75,0,0,0,.75.74Z"/></g></g></svg>