<svg xmlns="http://www.w3.org/2000/svg" viewBox="0 0 34.35 33.45"><defs><style>.cls-1{fill:#4d4d4d;}</style></defs><g id="圖層_2" data-name="圖層 2"><g id="圖層_2-2" data-name="圖層 2"><path class="cls-1" d="M16.26,33.44h1.65A16.88,16.88,0,0,0,34.35,16.73,16.87,16.87,0,0,0,17.91,0H16.26A16.91,16.91,0,0,0,0,16.73,16.91,16.91,0,0,0,16.26,33.44ZM5.88,27.55a19.5,19.5,0,0,1,3.52-2,20,20,0,0,0,4.89,6.33A16,16,0,0,1,5.88,27.55ZM16.51,32a19.42,19.42,0,0,1-5.88-6.92A20.24,20.24,0,0,1,16.51,24Zm0-9.36a21.7,21.7,0,0,0-6.41,1.25,18.28,18.28,0,0,1-1.37-6h7.78Zm0-6H8.68a18.78,18.78,0,0,1,1.07-6.19,21.33,21.33,0,0,0,6.76,1.39ZM19.84,32a20.07,20.07,0,0,0,5.05-6.6,19.22,19.22,0,0,1,3.78,2A16,16,0,0,1,19.84,32Zm9.71-5.58a20.91,20.91,0,0,0-4.15-2.22,19.76,19.76,0,0,0,1.37-6.23H33A15.09,15.09,0,0,1,29.55,26.37ZM30,7.72a15,15,0,0,1,3,8.9H26.81a20.1,20.1,0,0,0-1.08-6.44A20.89,20.89,0,0,0,30,7.72Zm-.82-1A18.87,18.87,0,0,1,25.27,9,20.31,20.31,0,0,0,19.83,1.5,15.86,15.86,0,0,1,29.22,6.7ZM17.84,1.57A19.09,19.09,0,0,1,24,9.44a19.73,19.73,0,0,1-6.19,1.11Zm0,10.28a21.5,21.5,0,0,0,6.65-1.19,18.82,18.82,0,0,1,1,6H17.84Zm0,6.07h7.6a18.78,18.78,0,0,1-1.28,5.79,21.47,21.47,0,0,0-6.32-1.06Zm0,6a20.3,20.3,0,0,1,5.8,1,19.28,19.28,0,0,1-5.8,7ZM16.51,1.44v9.1a20.11,20.11,0,0,1-6.28-1.31A19.05,19.05,0,0,1,16.51,1.44Zm-2.22.1A20.35,20.35,0,0,0,9,8.71,19.2,19.2,0,0,1,5.33,6.48,16,16,0,0,1,14.29,1.54Zm-9.8,6a20.74,20.74,0,0,0,4,2.43,20.33,20.33,0,0,0-1.18,6.71h-6A15,15,0,0,1,4.49,7.49ZM1.38,17.93h6A20.16,20.16,0,0,0,8.86,24.4,20.7,20.7,0,0,0,5,26.58,15,15,0,0,1,1.38,17.93Z"/></g></g></svg>