<svg xmlns="http://www.w3.org/2000/svg" viewBox="0 0 50 46.61"><g id="圖層_2" data-name="圖層 2"><g id="圖層_2-2" data-name="圖層 2"><path d="M21.28,0c1,.15,2,.26,3,.46C32.15,2,38.35,8.17,39.56,15.58a17.46,17.46,0,0,1-4,14.5l-.15.18a1.6,1.6,0,0,0-.09.2,1.69,1.69,0,0,1,.4.26Q42.38,36.92,49,43.14a9.36,9.36,0,0,1,1,1.28v.73l-.09.16a2,2,0,0,1-3.33.69c-.77-.7-1.52-1.42-2.28-2.13Q38.61,38.59,33,33.29a2.78,2.78,0,0,1-.31-.43,20.53,20.53,0,0,1-4.49,2.62C16.49,40.33,3.17,34.06.48,22.57-1.54,14,3,5.49,11.48,1.74A20.48,20.48,0,0,1,18.18.08,2.45,2.45,0,0,0,18.55,0ZM3.9,18.57c0,8.23,7.14,14.9,16,14.92s16-6.65,16.05-14.9-7.15-14.94-16-14.95S3.9,10.31,3.9,18.57Z"/><path d="M21.24,20v7H19.08V20H11.61V18h7.47V11h2.16v7h7.5v2Z"/></g></g></svg>