<svg xmlns="http://www.w3.org/2000/svg" viewBox="0 0 398.76 587.07"><g id="圖層_2" data-name="圖層 2"><g id="圖層_2-2" data-name="圖層 2"><path d="M375.6,490.31c2.5-18,9.2-35.32,13.38-52.53,9.17-37.84,20-82.69-9.28-107.11-15.26-12.74-33.33-20.41-56.64-26.78-8-2.18-16-6.08-22.66-7.21-1.8-.3-6.34.65-9.27,0-10.1-2.27-19.05-8.55-25.53-17a3.43,3.43,0,0,0,2.55-2.08c1.7.62,1,3.64,3.09,3.87,4.35-1.83,4.6-1.17,9.3-.77.87.07,4.7-1.26,3.86-1.56,3.83,1.39,4.32,8.66,10.85,7-.08-5.09-3.13-7.19-3.88-11.61,1.8-1.83,7.3.06,9.3-1.56C296,260.57,281.14,249.49,286,235c6.94,1.17,7.87,11.52,16.26,9.29,5.15-1.37,7.82-13.88,3.85-19.36-4.06-5.64-12.31-3-16.25-7-2.51-19.42,16.68-38.13,20.13-57.29,1-1.3,3.45-1.21,4.66-2.33,9-22.75,14-43.22,11.61-69.68-2.44-26.83-14.68-47.77-29.44-65C281.2,5.39,256.36-1.91,227.9.42c-16.34,1.34-33.42.72-46.47,9.29-9.85,6.48-22.2,22.09-27.1,34.83-2.07,5.4-3,10.92-5.41,16.27-4,8.81-8.09,19.12-13.17,28.65-4,7.42-9.66,14.85-10.84,24.77-1.63,13.89,6.15,21.46,6.2,32.52,0,8.07-5,17,.76,25.55-3.14,2.95-3.1,8.55-6.17,9.3-2.07.47-7.19-6.4-13.18-3.11-2.3,7.84.66,16.83.78,24.77-11.77.1-20.51,3.23-24.77,10.84,1.93,4,3.48,8.4,6.19,11.62,6.64-3.73,11.62-13.09,24-8.52-4.51,17.42-25.33,18.55-32.51,33.29,3.35,1.47,7,.63,9.29,1.56-.93,6.58,7.53,3.81,7,10.06,12.76-.64,16.11,8.15,26.32,10.06,10.53-9,11.34-28,10.07-41,5.07-2.24,10.55-4.16,10.06-10.84-.29-3.76-4.95-5.2-5.42-8.52-.46-3.08,2.41-8.34,3.87-10.84a50.29,50.29,0,0,1,6.49-8.42c.1.39.18.79.3,1.17,2.28,7.33,7.39,14.26,8.24,18.53,4.94,24.95-3.45,47.82-16.48,54.6-6.88,3.55-17.93,6.7-26.78,6.17-3.59-.21-6.51-2.66-10.31-3.09-44.38-5.07-90.12,10.31-104,39.15-9.24,19.16-2.86,49.5,0,75.18C6.62,400.46,9.46,417,11,433.66c1.7,18.35.28,36.58,1,54.59.73,17.46,4.94,34.09,6.18,49.43,1.52,18.81,3.95,38.07,12.17,49.39H369.29c1.28-12.32,1.44-26.33,2.17-35C373.22,531.54,373.51,505.08,375.6,490.31ZM258.19,231.79c1.93-5,9.24-10.27,14.88-16.81.43.23.83.4,1.27.68.81,10.35-10.35,8.73-11.62,17,.25,3.62,5.08,2.67,6.2,5.41-4.66,6.86-9.36,13.66-12.62,21.9A47.64,47.64,0,0,1,258.19,231.79Z"/></g></g></svg>