<svg xmlns="http://www.w3.org/2000/svg" viewBox="0 0 382.16 583.33"><g id="圖層_2" data-name="圖層 2"><g id="圖層_2-2" data-name="圖層 2"><path d="M359.9,449.42c6.42-48.11,50.23-110.43-6.18-146.49-17.7-11.32-38.37-4.69-55.22-14.11-17.47-9.78-22.24-16-42.29-21.15-17.5-18.59-11.18-44.75-4.66-69.42a14.33,14.33,0,0,0,3.6-.13c9.15-1.6,15.24-7.11,23.89-6.29,2.07-3.36.68-8.59,4.13-11.2,4.43-1.1,4.65,5.6,8.38,5.8,11.39-7.62,1.37-20.7-5.14-28.38,4.12-3.53,9-6.67,10.69-11.5,4.1.86,1,6.82,3.19,10.68,3.38-.3,3.16-2.56,5.65-3.35,5.17,1.06,1,9.23,4.17,11.22,5.69-3.54,3.59-11.29,1.86-18.84-1.64-.9-4.66.74-7.1,1.29-1.54-3,0-4.27-1.29-7.1-1.81-.2-3.74-.17-5.26-.92.56-7.56,9.31-.54,14.05-5.85,2.88-.21,2.75,5.18,5.62,5,5.78-3.09-1.31-11-3.86-13-4,1.33-5.92,3.19-9.91,3,1.56-4.13,8.83-7.64,3.44-13.5a20,20,0,0,1-6.56.3c-1.25-2.43-1.13-7.39-3.27-8.17,3.69-4.13,8.28-9.85,14.81-6.08,2.77-1.49,4.94-3.31,5.72-5.86,8.48,4.36,17.41-5.21,15.82-13.87-4.32,1.3-5.57,4.25-8,6.55-3.53-.57-4.6-5.71-8.39-5.81-2.82,1.89-5.24,4.18-7.86,1.52,1.54-6.37,8.49-13.9,1.18-21.13-3.87,1.11-4.22,4.12-2.53,8.23-5.36-.74-7.94-6.62-15.25-3.75-1.38-6.29,12.69-4.24,11.91-10.21-2.13-3.56-7.25-1.59-9.68-4.59-1.29-2.83.25-4.13-1.29-7.09-2.54-1.19-5.23,1.42-7.63,2.28-.84-2.38-1.4-4.6-.06-5.79-2.92-4.5-9-3.06-12.12-7.2-1.93.46-3,1.34-3.36,2.67-2.25-.18-2.5-4.08-6.25-1.46,5.43-6.3,22.34,3,22.52-10.87-2.54-1.22-6-.83-7.18-4.51a6,6,0,0,0-4.88,3.11c-2.25-1-2.75-5.18-5.11-5.95-2,1.25-4,2.52-4.42,4.65-1.64.28-1.21-3.3-2.66-3.36-1.4.53-2.41,1.26-2.6,2.44-2.23-1.82-4.6-3.34-6.1-6.5-2.34.66-2.48,2.5-3.89,3.65-1.44.31-1.24-2.43-2.44-2.59-3.45,1.87-7.08,4.21-10.38,1.44-2.32.66-2.48,2.49-3.89,3.65-3.14-.89-4.83-4.47-6.55-8-5.43,4.65-5.84-2.18-11.05-.87.43-4-2.49-8.71-4.42-12-5.1,1.5-.72,8.14-1.38,12-4.35-3.79-6.3-12-14.87-8-1.26,7.49-2.69,11.94-10.3,7.23-.32,2.39-3.24,3.37-4.21,5.41-1.26-.44-2.13-1.58-3.19-2.37-2.58,1.38-2.55,4.16-3,6.71-2.43-.24-3.57-2.86-5.94-3.22-1,1.38-2.53,2.48-1.91,4.73-2.63-.73-7.57-.76-6.42,3.58-3.35.28-5.42-1.82-8.76-1.54-3.09,2-2.7,5.79-7,7.09-.52,2.23-.95,3.54.83,5.56-2.33,1.94-7,2.62-7.48,5.56-5.51.85-10.53-2.68-14.42,1.81-2.48-.53-3.75-3.33-6.16-4-1.94.45-2,1.91-3.38,2.66-4-.8-6.31-4.88-9.07-8.09-4.12,3.94-4.58-1.41-7.46-2.76-6.64,1.53.3,10.4-.48,15.1,5.78-2.93,10.18-.55,10.91,5.89,6.64-5.45,10.6,4.11,15.56,2-9.4,5.92-16.87,10.83-25.87,5.23-2.5,1-2.28,3.47-2.46,5.72-7.87,3.31-19-2.92-22.8,4.32,2.87,5.73,9.56,4.39,13.33,8.48.26,3.55-2.77,5.33-1.3,9.54-7.41.89-9.69,4.58-11.6,8.44a15.83,15.83,0,0,1-7.54-8.55l-3.82,1.14c.79,8.74,6.5,17.71,16.45,13.37,5.13,3.42,2.53,13.7,12,12.22.3,5.88,3.92,7.48,1.35,12.89-6.35,2.16-15.72-2.59-17,4.25,4.45,7.16,15.65,1.84,22.81,4-.59,2-3.71,2.69-4.44,4.66.72,2.6,1.36,5.39,3.36,5.64-1,2.26-3.93,3.44-2,7.24,3.91-1.72,6.71-1.36,9.09-.21-1.53,1.95-4.51,3.11-4,6.17,3.82,6,11.27,3.82,17.39-.21a4,4,0,0,1,3,1.61c.91,4.34-6.1,4.39-4.82,8.92-3.57.68-5.45-1.76-9.3-.55-1.36,2.09-1.55,7.32,1.22,9.61-1.18,1.51-3.71,2.27-3.68,4.42.59,4.45,3.49,4.61,5.33,6.72-1.81,4.78-5.48,8.56-4.74,14.72,14.12.13,18.52-18.13,29.22-7.91,3.41-.92,1.45-4.74,4-6.16a15.19,15.19,0,0,0,5.29-.52,120.68,120.68,0,0,0,6.67,11.49c-4.17,4.14-5.22,10-3.53,17.26a13.55,13.55,0,0,0,10.26-1.6c2.66,11.55,1.38,24-2,36.48-10.69-1.56-29.24-3.15-40.37,1.92-3.9,1.78-5.47,6.37-9.6,7.69-24.17,7.69-45.77-7.89-70.24,6.06-19.26,11-30.31,31.94-32.59,53.52-3.47,32.75,9.86,65.34,8.18,98.63-1.45,29-5.57,57.81-4.35,86.85,1,22.91,6.88,49,15.05,74.44H325.52c.29-.46.57-.93.85-1.39C352.39,538.31,353.18,499.77,359.9,449.42Z"/></g></g></svg>