<svg xmlns="http://www.w3.org/2000/svg" viewBox="0 0 434.46 598.8"><g id="圖層_2" data-name="圖層 2"><g id="圖層_2-2" data-name="圖層 2"><path d="M386,493.74c-.75-16.93-1.45-35.49,0-52.08.81-9.21,3.8-18.91,5.95-28.75,9.33-1,18.46-3.09,23.31-8-6.05-1.22-14,.05-18.39-3.29,4-.79,5.73.47,9.37-1.14-2.27-3.36,1-2,1.92-4.72-2.24-1.71-6.36-1-8.78-2.45,8-3.24,16.43-6.13,16.63-15.49-2.77-.39-4,2.28-6.6,3.29A28.35,28.35,0,0,1,394,382.23a109.27,109.27,0,0,0-1.39-10.85c3.28-5.86,2.53-14.89,2.83-23.08,7.72,2.23,15.37,6.75,24.79,2.51,4.51-2,11.24-10.95,13.12-15.56.83-2,2.15-5.77-.32-7-2.53,5-4.12,10.56-9.92,13.18-15.86,7.2-33.17-2.82-34.38-15.86-.6-6.36,2.33-13.67,1.95-21.22-.45-8.57-5.26-14.81-8.52-21-7.28-13.79-4.63-31.9-7-45.63s-8.24-24.67-12.89-32.45c26.2,3.26,29.79,47.9,23.46,70.66,4.3-1.44,5.53-7.67,6.09-11.73.49-3.52.1-8.24,0-12.49-.36-15.59-3.47-26.86-8.92-36.9-6.92-12.77-24.5-17.53-28.1-30.12-2.27-7.95-1.63-16.29-1.61-21.8,5,4.92,12.41,10.2,16.83,19.47,1.69,3.55,2.15,8,3.87,11.53,3.13,6.43,11.9,17.83,16.89,7.48-2.16.35-2.75,2.31-5.79,1.68-2.72-.56-7-7.26-8.19-10-3.07-7-4.38-14.73-9.5-20.84-4.72-5.64-10.45-9.75-14.82-15.23-4.65-5.78-7.21-12.72-11.41-20.12-7.42-13-19-23.79-25.42-36.92-4.23-8.72-7.92-15-12.37-24-3.52-7.14-6.48-15-10.43-22.16a62.64,62.64,0,0,0-11.22-17.16,229.91,229.91,0,0,0-16.94-20C256,7.38,238.93.25,224.26,0c-7.83-.13-12,2.74-17.56,3.61-3.08.48-6.6-.51-9.53-.36-18.76,1-33.62,5.66-43.28,14.18-3.64,3.21-7.54,6.28-10,8.69-9.54,9.49-15.24,20.84-23.06,32.75-9.33,14.24-12.14,25.57-16.46,42-1.44,5.47-5.76,9.55-7.7,14.92-2.94,8.09-.46,19.34-4.7,27.54-1.26,2.45-3.86,3.82-5.26,6.14-2.65,4.41-5.56,11-5.56,16.15,0,4.71,1.75,14.66,5.4,15.85,1.36-3.06-1.07-6.64-1.18-9.86-.4-11.53,5.93-22.26,11.71-27.4-.24,6.24-2.76,11.94-2.87,17.85-.12,7.32,1,13.2-.27,18.52-1.66,7.28-6.75,12.5-8.6,20-1.23,5-1.89,10.28-3.15,15.37C77,237.3,87.31,260.38,96,276.75c-6.13,1.71-6.74-8.43-12.13-9.55-2.44,3,3.49,6.43,2.6,9.19-9.86-3-10.55-17.63-15.25-27.16-2.82,1.17-3.62,4.51-3.66,6.93-.18,12.91,11.78,22.93,18.43,28.78-13.42-1.86-25.24-4.55-29.58-17.44-1.66-5-.65-10.34-4.23-14.49-3.26,1.9-.69,8.37-2.64,11.31-1.39-1.46-1.06-5.07-4.47-3.95,1.14,11.28,7.93,21.22,16.36,28a66.26,66.26,0,0,0,12.68,7.7C53,299.84,31.3,302.23,18.71,317.46,9.67,328.4.48,353,0,374.9c-.34,15.62,6.57,30.79,9.36,46.73,6.85,39.42,2.73,85.66,2.66,124.21,0,12.77.23,31.52-4,44.06a55.87,55.87,0,0,1-4,8.9H396.77a69.27,69.27,0,0,1-5.46-18.24C387.66,553.57,387.25,522.86,386,493.74Z"/></g></g></svg>