<svg xmlns="http://www.w3.org/2000/svg" viewBox="0 0 39.56 34"><defs><style>.cls-1{fill:#4d4d4d;}</style></defs><g id="圖層_2" data-name="圖層 2"><g id="圖層_2-2" data-name="圖層 2"><path class="cls-1" d="M38,5.37a10.67,10.67,0,0,0-17-2,1.49,1.49,0,0,1-2.45,0A10.36,10.36,0,0,0,9.41.11,10.28,10.28,0,0,0,1.23,6a11,11,0,0,0,2,12.84c4.48,4.64,9,9.23,13.55,13.81a4.67,4.67,0,0,0,1.59,1.06,4,4,0,0,0,4.53-1.11q6.7-6.84,13.42-13.69A11.05,11.05,0,0,0,39.56,11,11.36,11.36,0,0,0,38,5.37Zm-12,.89-1,.87a1.37,1.37,0,1,1-1.84-2,11.82,11.82,0,0,1,1.29-1,1.23,1.23,0,0,1,1.41,0,1.28,1.28,0,0,1,.7,1.19A1.35,1.35,0,0,1,26.08,6.26ZM34.34,17l-4.62,4.71a1.46,1.46,0,0,1-1.42.5,1.36,1.36,0,0,1-.87-2,2.93,2.93,0,0,1,.4-.47c1.51-1.55,3-3.09,4.55-4.65a5.61,5.61,0,0,0-.23-8.22,7.81,7.81,0,0,0-1.59-1,1.43,1.43,0,0,1-.85-1.15,1.36,1.36,0,0,1,1.9-1.4A8.06,8.06,0,0,1,36.25,8a7.92,7.92,0,0,1,.55,3A8.31,8.31,0,0,1,34.34,17Z"/></g></g></svg>