<svg xmlns="http://www.w3.org/2000/svg" viewBox="0 0 69.76 69.76"><defs><style>.cls-1{fill:#4d4d4d;}</style></defs><g id="圖層_2" data-name="圖層 2"><g id="圖層_2-2" data-name="圖層 2"><path class="cls-1" d="M52.54,21.52a7.09,7.09,0,0,0-1.69-2.61,7,7,0,0,0-2.61-1.69,12.42,12.42,0,0,0-4.2-.78c-2.39-.11-3.11-.13-9.16-.13s-6.77,0-9.15.13a12.55,12.55,0,0,0-4.21.78,7.43,7.43,0,0,0-4.3,4.3,12.55,12.55,0,0,0-.78,4.21c-.11,2.39-.13,3.1-.13,9.15s0,6.77.13,9.16a12.42,12.42,0,0,0,.78,4.2,7,7,0,0,0,1.69,2.61,7.09,7.09,0,0,0,2.61,1.69,12.55,12.55,0,0,0,4.21.78c2.38.11,3.1.14,9.15.14s6.77,0,9.16-.14a12.42,12.42,0,0,0,4.2-.78,7.43,7.43,0,0,0,4.3-4.3,12.42,12.42,0,0,0,.78-4.2c.11-2.39.14-3.11.14-9.16s0-6.76-.14-9.15A12.55,12.55,0,0,0,52.54,21.52Zm-17.66,25A11.64,11.64,0,1,1,46.52,34.88,11.64,11.64,0,0,1,34.88,46.52Zm12.1-21a2.72,2.72,0,1,1,2.71-2.72A2.72,2.72,0,0,1,47,25.51Z"/><path class="cls-1" d="M36.4,0H34.88A35,35,0,0,0,0,34.88H0A35,35,0,0,0,34.88,69.76h0A35,35,0,0,0,69.76,34.88V33.36A33.46,33.46,0,0,0,36.4,0Zm21,44.22a16.64,16.64,0,0,1-1,5.5,11.26,11.26,0,0,1-2.61,4,11.13,11.13,0,0,1-4,2.61,16.64,16.64,0,0,1-5.5,1c-2.41.11-3.19.14-9.34.14s-6.92,0-9.34-.14a16.64,16.64,0,0,1-5.5-1,11.6,11.6,0,0,1-6.63-6.63,16.64,16.64,0,0,1-1.05-5.5c-.11-2.41-.14-3.19-.14-9.34s0-6.92.14-9.34A16.64,16.64,0,0,1,13.41,20,11.67,11.67,0,0,1,20,13.41a16.64,16.64,0,0,1,5.5-1.05c2.42-.11,3.19-.14,9.34-.14s6.93,0,9.34.14a16.64,16.64,0,0,1,5.5,1.05A11.6,11.6,0,0,1,56.35,20a16.64,16.64,0,0,1,1,5.5c.11,2.42.14,3.19.14,9.34S57.51,41.81,57.4,44.22Z"/><path class="cls-1" d="M34.88,27.33a7.55,7.55,0,1,0,7.55,7.55A7.55,7.55,0,0,0,34.88,27.33Z"/></g></g></svg>