<svg xmlns="http://www.w3.org/2000/svg" viewBox="0 0 70 70"><defs><style>.cls-1{fill:#4d4d4d;}.cls-2{fill:#fff;}</style></defs><g id="圖層_2" data-name="圖層 2"><g id="圖層_2-2" data-name="圖層 2"><path class="cls-1" d="M35,0A35,35,0,1,0,70,34.89,34.95,34.95,0,0,0,35,0Z"/><path class="cls-2" d="M51.77,21.54c-8.1-8.92-23.59-9.44-32.45-1.1-7,6.53-7,16.36-.22,23A21.38,21.38,0,0,0,31.35,49.3c2.76.39,3,.85,2.25,3.48a15.58,15.58,0,0,0-.34,2.57L36,54.62a.6.6,0,0,0,.15-.09c5-3.76,10.16-7.33,14.93-11.36C54.32,40.44,56,36.61,56,30.76,56,28.12,54.52,24.57,51.77,21.54Z"/><path class="cls-1" d="M39.13,33.66c0-1.79,0-3.57,0-5.35,0-1.08,1-1.76,1.79-1.22a1.56,1.56,0,0,1,.64,1.11c.06,3.07,0,6.14,0,9.21a1.2,1.2,0,0,1-.9,1.24,1.23,1.23,0,0,1-1.42-.58c-1.38-1.87-2.74-3.73-4.11-5.6l-.57-.72v3.67c0,.69,0,1.38,0,2.07a1.21,1.21,0,0,1-1.22,1.22,1.27,1.27,0,0,1-1.23-1.17c0-.16,0-.32,0-.48,0-2.78,0-5.55,0-8.33,0-.16,0-.32,0-.48A1.24,1.24,0,0,1,33,27a1.21,1.21,0,0,1,1.43.53l4,5.49.53.7Z"/><path class="cls-1" d="M45.75,29.38v2.2c1.1,0,2.16,0,3.23,0a1.24,1.24,0,0,1,1.28.75A1.22,1.22,0,0,1,49,34c-1.07,0-2.15,0-3.27,0v2.2h3.1c.94,0,1.51.48,1.52,1.23s-.59,1.23-1.51,1.24H44.75c-1,0-1.5-.46-1.5-1.52q0-4.37,0-8.73c0-1.13.44-1.56,1.59-1.56,1.35,0,2.7,0,4,0,.92,0,1.5.51,1.49,1.26s-.59,1.2-1.47,1.21S46.86,29.38,45.75,29.38Z"/><path class="cls-1" d="M22.09,36.25h3.26c.87,0,1.39.45,1.41,1.18a1.24,1.24,0,0,1-1.38,1.28c-1.47,0-2.93,0-4.4,0a1.22,1.22,0,0,1-1.34-1.33c0-3,0-6.05,0-9.07a1.25,1.25,0,0,1,1.28-1.39c.74,0,1.18.57,1.18,1.48,0,2.33,0,4.67,0,7Z"/><path class="cls-1" d="M30.35,32.81c0,1.49,0,3,0,4.47,0,.87-.5,1.43-1.22,1.43a1.27,1.27,0,0,1-1.23-1.44c0-3,0-6,0-8.92a1.26,1.26,0,0,1,1-1.4,1.1,1.1,0,0,1,1.29.56,1.84,1.84,0,0,1,.19.91C30.36,29.89,30.35,31.35,30.35,32.81Z"/></g></g></svg>