<svg xmlns="http://www.w3.org/2000/svg" viewBox="0 0 31.04 31.05"><defs><style>.cls-1{fill:#4d4d4d;}</style></defs><g id="圖層_2" data-name="圖層 2"><g id="圖層_2-2" data-name="圖層 2"><path class="cls-1" d="M13.21,0c.63.1,1.26.18,1.88.31a12.37,12.37,0,0,1,7,19.72.94.94,0,0,0-.09.12s0,0-.06.13a1.71,1.71,0,0,1,.25.18q4.14,4.13,8.27,8.27a6.59,6.59,0,0,1,.6.86v.48l-.06.11a1.2,1.2,0,0,1-2.06.45c-.48-.46-1-.94-1.42-1.41l-7-7c-.07-.08-.12-.18-.19-.28a12.55,12.55,0,0,1-2.79,1.74A12.37,12.37,0,0,1,7.12,1.16,12.06,12.06,0,0,1,11.28.05l.24,0ZM2.42,12.37a9.94,9.94,0,1,0,10-9.94A9.94,9.94,0,0,0,2.42,12.37Z"/></g></g></svg>