<svg xmlns="http://www.w3.org/2000/svg" viewBox="0 0 36.77 45.25"><defs><style>.cls-1{fill:#4d4d4d;}</style></defs><g id="圖層_2" data-name="圖層 2"><g id="圖層_2-2" data-name="圖層 2"><path class="cls-1" d="M7.08,45.25A10.75,10.75,0,0,1,5.8,44.8a3.93,3.93,0,0,1-2.34-3.39c-.19-2.86-.3-5.73-.44-8.6q-.35-7.08-.68-14.16l-.09-1.81c0-.38.15-.59.55-.58H33.72c.75,0,.83.09.79.84L34,27.16c-.22,4.71-.43,9.42-.69,14.12a4.11,4.11,0,0,1-3.48,3.9.46.46,0,0,0-.16.07ZM9.91,28.94v3.67c0,1.85,0,3.71,0,5.56a1.41,1.41,0,0,0,2.79.29,2.73,2.73,0,0,0,0-.57q0-8.91,0-17.81c0-.13,0-.26,0-.39a1.38,1.38,0,0,0-.9-1.21,1.41,1.41,0,0,0-1.92,1.4C9.9,22.9,9.91,25.92,9.91,28.94Zm9.89,0V27.68c0-2.59,0-5.18,0-7.77a1.42,1.42,0,1,0-2.82,0V35.3c0,.94,0,1.89,0,2.83a1.41,1.41,0,1,0,2.82-.07C19.81,35,19.8,32,19.8,29Zm7.07,0V27.59c0-2.56,0-5.12,0-7.68a1.42,1.42,0,1,0-2.82,0V35.48c0,.88,0,1.77,0,2.65a1.41,1.41,0,1,0,2.82-.07C26.88,35,26.87,32,26.87,29Z"/><path class="cls-1" d="M21.84,0c.27.09.55.16.83.26a4.23,4.23,0,0,1,2.79,3.88c0,.48,0,1,0,1.52h7.6a3.52,3.52,0,0,1,3.71,3.72c0,.85,0,1.71,0,2.56a1.4,1.4,0,0,1-1.5,1.49H1.51A1.41,1.41,0,0,1,0,11.94,28.72,28.72,0,0,1,.09,8.59,3.41,3.41,0,0,1,3.55,5.66h7.77V4.4A4.22,4.22,0,0,1,14.79.08.71.71,0,0,0,14.94,0ZM14.15,5.62h8.48c0-.5,0-1,0-1.44a1.39,1.39,0,0,0-1.37-1.35c-1.91,0-3.83,0-5.74,0a1.39,1.39,0,0,0-1.36,1.31C14.13,4.63,14.15,5.11,14.15,5.62Z"/></g></g></svg>